<svg version="1.1" id="Layer_1" xmlns="http://www.w3.org/2000/svg" x="0" y="0" viewBox="0 0 1513 191" style="enable-background:new 0 0 1513 191" xml:space="preserve"><style>.st0{fill:#2d2d2d}</style><path class="st0" d="M280.32 110.8c-6.33-7.12-14.78-11.87-25.07-14.77 22.43-7.39 33.78-20.58 33.78-39.84v-2.9c0-31.39-26.39-47.22-79.16-47.22H0v181.5h57V123.2h137.29c13.99 0 23.75 2.64 29.55 7.65 5.81 5.01 8.71 13.19 8.71 24.27v32.45h57.26v-49.86c.01-11.08-3.16-20.05-9.49-26.91zm-50.93-45.64c0 5.28-1.85 9.76-5.54 12.93s-9.5 5.01-17.42 5.01H57V47.22h149.43c7.92 0 13.72 1.85 17.42 5.01 3.69 3.17 5.54 7.39 5.54 12.66v.27zM318 2.64v184.93h215.32v-43H380.27v-30.34h146.72V72.02H380.27V44.58h150.15V2.64H318zM696.89 6.6v93.92c0 14.25-3.7 25.06-10.82 32.98-7.39 7.91-18.21 11.87-32.98 11.87h-2.9c-7.65 0-13.99-1.06-19.79-2.9-5.54-2.11-9.76-4.22-12.67-6.86-2.9-2.64-5.28-5.8-7.12-9.5s-2.9-6.59-3.43-8.71c-.53-2.11-.79-4.49-1.06-6.86h-57.53v1.58c0 7.12.79 14.25 2.64 21.37 1.58 6.86 5.01 13.98 9.5 20.84a72.048 72.048 0 0 0 17.42 18.47c7.12 5.28 16.36 9.5 27.97 12.66 11.35 3.16 24.28 4.75 38.79 4.75h13.72c14.78 0 27.97-1.85 39.58-5.54 11.61-3.96 20.85-8.71 27.71-14.51 6.86-5.8 12.4-12.93 16.89-20.84 4.49-8.18 7.39-16.09 8.97-23.74 1.58-7.65 2.11-15.56 2.11-23.48V6.6h-57zM916.14 0c-17.68 0-33.51 1.06-48.03 3.43-14.25 2.11-26.39 5.01-36.15 8.71-9.5 3.69-17.94 8.18-25.07 13.45-7.39 5.28-12.93 10.55-17.15 15.83-3.96 5.28-7.12 11.08-9.5 17.41-2.64 6.33-4.22 12.14-4.75 16.88-.79 5.01-1.05 10.02-1.05 15.56v7.39c0 5.28.26 10.55 1.05 15.56.53 4.75 2.11 10.55 4.75 16.88 2.38 6.33 5.54 12.14 9.5 17.68 4.22 5.28 9.76 10.55 17.15 16.09 7.39 5.28 15.83 9.76 25.33 13.72 9.5 3.69 21.64 6.6 35.89 8.97 14.51 2.37 30.35 3.43 48.03 3.43h90.14c17.68 0 33.51-1.05 47.76-3.43 14.52-2.37 26.39-5.28 35.89-8.97 9.5-3.96 17.94-8.44 25.33-13.72 7.39-5.54 12.93-10.82 16.89-16.09 3.96-5.54 7.13-11.34 9.76-17.67 2.38-6.33 4.23-12.14 4.75-16.88.8-5.01 1.06-10.29 1.06-15.57v-7.39c0-5.54-.26-10.55-1.06-15.56-.52-5.01-2.37-10.55-4.75-16.88-2.63-6.33-5.8-12.14-10.02-17.41-3.96-5.28-9.5-10.55-16.89-15.83-7.13-5.28-15.57-9.76-25.07-13.45-9.76-3.69-21.64-6.6-35.89-8.71-14.25-2.37-30.08-3.43-47.76-3.43h-90.14zm165.61 96.56c0 5.8-1.05 11.61-3.43 16.88-2.11 5.28-6.07 10.55-11.61 15.56-5.54 5.28-13.99 9.5-25.33 12.4-9.77 2.9-21.64 4.22-35.1 4.75h-88.29c-14.51-.26-27.18-1.85-37.73-4.75-11.35-3.17-19.53-7.39-25.07-12.66-5.28-5.28-9.24-10.55-11.35-15.83-2.38-5.28-3.43-11.08-3.43-16.88v-2.9c0-31.39 25.6-47.49 76.52-48.54 1.58 0 88.03 0 90.41.26 10.29.26 19.52 1.06 27.7 2.9 9.77 2.11 17.68 4.75 23.49 7.91 5.8 2.9 10.55 6.86 13.99 11.34 3.69 4.48 6.06 8.71 7.38 12.93 1.32 3.96 1.85 8.44 1.85 13.19v3.44zM1503.5 110.8c-6.33-7.12-14.78-11.87-25.07-14.77 22.43-7.39 33.78-20.58 33.78-39.84v-2.9c0-31.39-26.39-47.22-79.16-47.22h-261.31v181.5h56.99V123.2h188.75c13.98 0 23.75 2.64 29.55 7.65 5.81 5.01 8.71 13.19 8.71 24.27v32.45H1513v-49.86c0-11.08-3.17-20.05-9.5-26.91zm-50.93-45.64c0 5.28-1.84 9.76-5.54 12.93-3.69 3.17-9.5 5.01-17.41 5.01h-200.89V47.22h200.89c7.91 0 13.72 1.85 17.41 5.01 3.7 3.17 5.54 7.39 5.54 12.66v.27z"/></svg>